<?xml version="1.0" standalone="no"?>
<!DOCTYPE svg PUBLIC "-//W3C//DTD SVG 20010904//EN"
 "http://www.w3.org/TR/2001/REC-SVG-20010904/DTD/svg10.dtd">
<svg version="1.0" xmlns="http://www.w3.org/2000/svg"
 width="755.000000pt" height="1013.000000pt" viewBox="0 0 755.000000 1013.000000"
 preserveAspectRatio="xMidYMid meet">
<metadata>
Created by potrace 1.16, written by Peter Selinger 2001-2019
</metadata>
<g transform="translate(0.000000,1013.000000) scale(0.100000,-0.100000)"
fill="#000000" stroke="none">
<path d="M3678 9942 c-16 -2 -28 -8 -28 -13 0 -5 -7 -9 -14 -9 -91 0 -749
-476 -1136 -821 -253 -226 -528 -516 -749 -789 -78 -96 -148 -184 -157 -195
-8 -11 -36 -48 -62 -82 -26 -34 -58 -78 -72 -98 -14 -20 -30 -42 -36 -49 -6
-6 -19 -26 -28 -44 -9 -18 -20 -32 -25 -32 -5 0 -14 -13 -21 -30 -7 -16 -16
-30 -20 -30 -4 0 -13 -14 -20 -30 -7 -17 -18 -34 -25 -38 -7 -4 -18 -19 -26
-34 -8 -14 -41 -66 -73 -115 -32 -48 -69 -104 -81 -123 -12 -19 -30 -48 -41
-65 -10 -16 -23 -37 -29 -46 -5 -9 -23 -40 -40 -70 -16 -30 -38 -67 -47 -84
-9 -16 -27 -48 -38 -70 -12 -22 -34 -62 -50 -90 -16 -27 -34 -61 -39 -75 -6
-14 -16 -32 -21 -40 -6 -8 -15 -26 -21 -40 -6 -14 -29 -63 -51 -110 -104 -221
-138 -297 -138 -312 0 -7 -9 -26 -20 -43 -11 -16 -20 -39 -20 -49 0 -10 -9
-37 -19 -60 -11 -23 -26 -61 -34 -86 -14 -44 -18 -56 -52 -155 -9 -27 -22 -73
-29 -101 -8 -28 -18 -60 -24 -71 -6 -11 -18 -49 -26 -84 -8 -35 -22 -91 -31
-124 -51 -192 -92 -372 -105 -460 -5 -38 -17 -99 -25 -135 -8 -36 -15 -81 -15
-100 0 -19 -9 -76 -19 -125 -11 -50 -22 -136 -26 -190 -4 -55 -14 -154 -23
-220 -25 -178 -25 -1077 0 -1245 9 -63 20 -162 24 -220 3 -58 15 -145 25 -195
10 -49 19 -108 19 -130 0 -22 7 -71 16 -110 8 -38 21 -106 28 -150 8 -44 21
-107 30 -140 9 -32 16 -69 16 -82 0 -26 41 -198 70 -293 11 -36 20 -74 21 -85
0 -11 7 -38 15 -60 9 -22 21 -67 29 -100 13 -57 25 -98 66 -210 9 -27 21 -66
24 -85 4 -19 13 -44 20 -56 8 -12 17 -39 21 -60 4 -21 15 -56 25 -76 11 -21
19 -43 19 -50 0 -7 12 -35 25 -63 14 -27 25 -57 25 -65 0 -9 6 -24 14 -35 7
-11 19 -38 26 -60 7 -22 21 -56 31 -75 11 -19 19 -40 19 -46 0 -7 21 -54 46
-106 50 -101 59 -119 73 -146 5 -9 25 -51 45 -92 20 -41 42 -83 50 -92 13 -17
157 -18 2785 -18 2698 0 2771 0 2771 19 0 10 9 30 20 44 11 14 20 29 20 33 0
5 20 51 45 104 75 157 82 172 115 250 17 41 40 93 50 116 11 23 20 45 20 49 0
4 7 21 14 38 72 157 243 637 343 962 14 44 33 107 43 140 11 33 22 78 25 100
4 22 15 64 26 93 10 29 19 65 19 80 0 15 7 52 15 82 9 30 22 102 30 158 8 57
19 120 24 140 6 21 15 100 21 177 6 77 16 160 21 185 12 51 25 310 34 670 8
300 -10 918 -31 1070 -8 58 -19 149 -23 202 -9 92 -22 166 -58 318 -46 193
-59 245 -98 385 -12 44 -27 98 -33 120 -5 22 -15 54 -20 70 -20 55 -43 130
-56 180 -8 28 -20 66 -28 85 -9 19 -21 51 -28 70 -6 19 -23 64 -37 100 -13 36
-31 83 -39 105 -8 22 -21 54 -29 70 -37 80 -65 145 -65 153 0 6 -12 34 -26 64
-15 29 -35 71 -45 93 -15 34 -42 90 -97 203 -7 15 -17 34 -23 42 -5 8 -18 33
-29 55 -11 22 -24 47 -29 55 -6 8 -27 46 -48 83 -21 38 -48 85 -60 105 -12 21
-29 51 -38 67 -9 17 -29 50 -45 75 -17 25 -36 59 -44 76 -8 17 -22 36 -30 44
-9 7 -16 18 -16 24 0 12 -51 87 -77 114 -7 7 -13 17 -13 21 0 4 -8 18 -17 29
-10 12 -28 36 -41 54 -13 18 -59 80 -103 138 -44 58 -87 116 -96 130 -10 14
-24 32 -32 41 -9 9 -27 30 -41 48 -13 18 -33 43 -45 56 -11 12 -29 33 -40 46
-143 170 -174 205 -290 328 -97 103 -358 364 -421 421 -194 176 -477 419 -524
449 -14 8 -27 18 -30 21 -12 13 -233 171 -325 232 -132 88 -296 178 -323 178
-6 0 -12 4 -14 10 -3 9 -147 18 -200 12z m151 -139 c36 -26 98 -68 136 -94 64
-42 558 -408 613 -455 48 -40 61 -50 127 -109 254 -226 396 -363 562 -541 122
-131 135 -146 193 -214 25 -29 54 -62 65 -74 11 -11 41 -48 67 -81 26 -33 56
-71 67 -85 11 -14 48 -61 83 -105 35 -44 71 -91 81 -105 9 -14 37 -54 62 -90
25 -36 69 -99 99 -140 30 -41 55 -80 55 -86 1 -6 10 -19 21 -29 11 -10 20 -22
20 -27 0 -5 11 -24 25 -42 14 -18 25 -36 25 -39 0 -3 17 -32 38 -64 95 -144
280 -490 402 -753 197 -422 403 -1048 495 -1505 57 -279 95 -891 95 -1500 -1
-284 -24 -819 -39 -881 -6 -23 -15 -81 -20 -130 -6 -49 -19 -123 -30 -164 -25
-98 -38 -149 -61 -240 -10 -41 -31 -115 -45 -165 -15 -49 -35 -119 -45 -155
-10 -36 -23 -78 -29 -95 -14 -42 -39 -120 -61 -190 -21 -70 -34 -107 -66 -193
-13 -34 -24 -69 -24 -77 0 -8 -9 -32 -20 -52 -11 -21 -20 -43 -20 -50 0 -14
-42 -125 -71 -189 -11 -23 -19 -46 -19 -51 0 -10 -32 -87 -71 -169 -10 -23
-19 -45 -19 -49 0 -9 -46 -111 -61 -135 -5 -8 -14 -26 -19 -40 -27 -66 -93
-176 -115 -192 -19 -14 -44 -8 -67 15 -13 13 -59 61 -103 107 -43 47 -175 184
-291 305 -416 432 -383 394 -374 423 9 31 59 184 107 327 19 55 42 127 53 160
65 214 149 440 166 446 11 4 73 8 139 8 165 1 495 21 522 32 16 6 26 22 34 54
6 25 24 59 39 75 35 37 59 110 71 216 5 46 15 112 23 146 8 35 17 104 21 153
3 50 13 126 20 170 21 115 37 407 24 420 -6 6 -139 12 -362 15 -194 3 -358 9
-364 13 -10 6 -13 121 -13 517 l0 510 23 5 c12 3 139 6 282 7 230 3 264 5 298
22 24 12 37 25 37 39 0 11 19 37 41 58 32 30 40 43 36 61 -3 13 -11 48 -17 78
-6 30 -17 87 -26 126 -8 39 -19 109 -24 157 -5 47 -15 110 -23 139 -9 29 -22
87 -31 128 -32 161 -38 187 -56 235 -10 28 -22 69 -25 92 -5 29 -15 50 -32 63
-25 19 -41 20 -369 20 l-343 0 -26 37 c-14 21 -25 42 -25 47 0 5 -11 32 -24
60 -25 51 -69 148 -80 176 -3 8 -10 22 -15 30 -5 8 -19 38 -32 65 -28 64 -71
157 -121 265 -22 47 -52 110 -65 140 -14 30 -29 62 -34 70 -5 8 -14 26 -20 40
-22 48 -101 215 -120 252 -39 76 -26 88 106 88 133 0 459 21 483 30 12 5 22
17 22 25 0 9 12 18 31 22 17 3 33 11 35 18 3 7 -12 39 -34 71 -21 33 -47 72
-58 88 -46 70 -139 204 -171 249 -16 20 -41 56 -58 80 -16 23 -40 56 -53 72
-27 35 -42 55 -82 110 -44 60 -62 84 -91 119 -14 17 -34 42 -45 55 -10 13 -30
36 -44 51 -14 16 -36 41 -49 57 -120 145 -516 544 -716 723 -77 68 -145 129
-151 135 -7 5 -27 22 -45 37 -19 14 -85 68 -148 120 -63 51 -147 119 -188 151
l-73 58 -77 -7 -77 -7 -191 -145 c-251 -192 -393 -308 -524 -427 -181 -164
-320 -301 -426 -419 -50 -55 -97 -107 -105 -115 -12 -13 -123 -145 -232 -276
-10 -11 -40 -49 -67 -85 -63 -80 -59 -75 -101 -133 -19 -27 -53 -72 -75 -100
-49 -63 -154 -218 -176 -259 -8 -16 -20 -33 -26 -36 -6 -4 -18 -23 -27 -42 -8
-19 -20 -42 -25 -50 -20 -30 -41 -84 -41 -101 0 -19 21 -34 74 -52 17 -5 150
-13 296 -17 272 -6 320 -13 320 -48 0 -13 -77 -174 -110 -232 -5 -8 -15 -28
-23 -45 -7 -16 -19 -39 -25 -50 -7 -11 -16 -31 -22 -45 -5 -14 -14 -32 -19
-40 -9 -13 -58 -121 -75 -160 -3 -8 -10 -22 -16 -30 -5 -8 -16 -31 -25 -50 -8
-19 -19 -42 -24 -50 -5 -8 -21 -42 -36 -75 -14 -33 -35 -77 -46 -97 -10 -20
-19 -43 -19 -50 0 -7 -8 -29 -19 -48 -10 -19 -22 -51 -26 -70 -4 -19 -16 -53
-26 -75 -10 -22 -20 -52 -23 -66 -4 -17 -14 -29 -28 -33 -13 -3 -157 -6 -321
-6 -326 0 -363 -5 -390 -52 -9 -15 -23 -28 -31 -28 -16 0 -49 -86 -71 -185 -7
-33 -21 -82 -29 -109 -9 -27 -16 -59 -16 -71 0 -12 -8 -49 -19 -81 -10 -33
-21 -86 -25 -119 -4 -33 -13 -82 -21 -110 -8 -27 -19 -89 -25 -137 -6 -47 -17
-102 -25 -121 -8 -19 -16 -66 -17 -103 -3 -65 -2 -68 22 -75 78 -23 174 -29
433 -29 323 0 313 3 282 -73 -28 -71 -55 -397 -55 -689 0 -220 -2 -259 -16
-272 -13 -14 -54 -16 -288 -16 -311 0 -346 -6 -346 -59 0 -43 -9 -60 -41 -77
-29 -14 -29 -15 -29 -107 1 -50 5 -123 10 -162 6 -38 17 -138 25 -221 8 -82
19 -162 24 -177 6 -15 15 -66 21 -114 6 -49 17 -110 25 -138 7 -27 17 -75 20
-105 9 -74 13 -87 33 -97 9 -4 174 -10 367 -13 l349 -5 23 -65 c13 -36 30 -85
38 -110 15 -50 38 -120 65 -195 28 -79 50 -146 65 -195 15 -49 37 -116 65
-195 64 -181 84 -257 77 -287 -4 -13 -45 -63 -93 -113 -47 -49 -156 -163 -242
-253 -87 -90 -179 -185 -207 -212 -157 -153 -201 -190 -219 -188 -27 4 -100
140 -215 401 -10 23 -30 67 -45 98 -14 31 -26 61 -26 68 0 7 -9 29 -19 49 -11
20 -32 71 -46 112 -15 41 -36 93 -46 116 -10 23 -19 47 -19 54 0 7 -9 31 -19
54 -20 43 -43 109 -66 187 -7 26 -20 60 -28 75 -8 16 -18 47 -22 69 -3 21 -13
51 -20 65 -7 14 -16 44 -20 65 -4 22 -15 60 -25 85 -19 51 -44 144 -65 243 -8
37 -19 76 -25 86 -5 10 -15 52 -21 92 -6 41 -15 81 -20 90 -5 9 -15 57 -24
105 -8 49 -21 125 -29 169 -29 156 -55 341 -61 430 -4 50 -13 149 -22 220 -18
156 -21 786 -3 935 6 52 17 169 25 259 8 91 19 188 24 215 6 28 15 89 21 136
6 47 17 108 25 135 7 28 16 77 20 110 4 33 15 94 26 137 10 42 19 86 19 97 0
11 7 42 16 68 10 26 23 75 30 108 24 109 44 189 64 250 11 33 20 69 20 80 1
11 8 38 16 60 8 22 22 60 29 85 22 71 55 162 70 195 14 31 37 91 61 160 8 22
21 54 29 70 7 17 24 53 36 80 34 79 119 258 130 275 5 8 16 31 24 50 9 19 20
42 25 50 6 8 15 26 20 40 6 14 14 32 20 40 5 8 28 51 51 95 39 75 59 111 109
195 40 65 69 115 90 150 11 19 34 55 50 80 16 25 34 54 39 65 5 12 16 27 25
34 9 7 16 19 16 26 0 8 10 26 23 42 13 15 27 35 30 43 4 8 23 35 42 60 19 25
38 52 42 60 3 8 17 29 30 45 13 17 31 39 39 50 8 11 37 49 64 85 27 36 56 74
64 85 171 230 539 628 736 795 142 121 192 164 209 181 14 13 88 75 260 214
20 16 65 55 101 86 81 70 480 377 551 424 30 19 64 35 78 35 13 0 53 -21 90
-47z m20 -700 c147 -98 250 -181 441 -358 98 -91 446 -442 530 -534 106 -117
113 -125 155 -176 22 -26 49 -57 60 -69 11 -11 44 -50 73 -86 56 -70 66 -83
112 -145 16 -22 36 -47 45 -56 8 -9 15 -19 15 -24 0 -4 12 -22 28 -40 15 -17
34 -42 42 -55 8 -12 24 -35 36 -49 12 -14 27 -37 34 -50 7 -14 17 -30 22 -35
42 -52 109 -169 106 -188 l-3 -23 -1570 2 c-1577 2 -2015 9 -2022 29 -4 13 65
120 120 184 7 8 22 28 32 44 40 59 59 87 162 236 30 43 353 439 402 492 298
326 1004 958 1070 958 13 0 63 -26 110 -57z m707 -2059 c166 -4 305 -9 310
-13 5 -3 31 -40 58 -81 27 -41 56 -86 66 -100 9 -14 33 -59 53 -100 21 -41 42
-82 47 -90 9 -15 92 -191 132 -280 12 -25 29 -62 39 -82 11 -20 19 -43 19 -50
0 -7 7 -26 16 -43 56 -107 142 -361 127 -375 -4 -5 -84 -14 -178 -21 -129 -10
-535 -13 -1675 -14 l-1505 0 1 25 c1 14 14 57 29 95 15 39 34 93 42 120 9 28
22 59 28 70 7 11 16 36 20 55 4 19 16 51 26 70 11 19 19 41 19 48 0 7 9 30 20
50 10 20 29 60 41 87 76 177 167 357 225 448 13 20 36 56 51 80 44 67 74 102
97 108 23 7 1424 2 1892 -7z m499 -1389 c843 -6 1176 -18 1199 -44 55 -63 186
-667 174 -806 l-3 -40 -2635 -3 c-1449 -1 -2650 0 -2667 3 l-33 6 0 81 c0 77
15 182 47 318 8 36 21 94 28 130 7 36 20 92 29 125 9 32 16 69 16 80 0 30 30
117 47 135 11 12 69 16 346 20 370 6 2297 3 3452 -5z m717 -1595 c4 -336 3
-511 -4 -524 -10 -18 -23 -19 -357 -13 -190 4 -1081 10 -1979 14 -1154 4
-1637 9 -1646 17 -37 29 -52 706 -21 891 10 55 22 106 27 113 8 9 414 12 1992
10 l1981 -3 7 -505z m705 -775 c10 -18 -2 -222 -17 -286 -6 -25 -17 -97 -24
-160 -8 -63 -21 -143 -29 -179 -9 -36 -19 -82 -22 -102 -12 -74 225 -68 -2637
-66 l-2573 3 -23 49 c-13 28 -30 85 -37 128 -8 43 -17 83 -20 87 -3 5 -12 78
-20 163 -9 84 -17 158 -20 165 -10 29 -25 176 -20 193 6 20 35 20 2720 20
2378 0 2715 -2 2722 -15z m-4772 -925 c0 -13 -43 -15 -319 -18 -312 -2 -357 2
-340 29 3 5 146 8 332 7 283 -3 327 -5 327 -18z m3535 2 l65 -7 -109 -8 c-130
-8 -3227 -10 -3250 -1 -32 12 -15 23 42 27 103 8 3185 -3 3252 -11z m1135 9
c15 -24 -43 -31 -262 -30 -213 0 -292 8 -253 23 34 13 507 19 515 7z m-1570
-131 c544 -9 726 -20 752 -44 9 -8 7 -28 -7 -86 -29 -113 -57 -210 -74 -255
-8 -22 -15 -46 -16 -53 0 -8 -7 -28 -15 -45 -8 -18 -21 -54 -29 -82 -15 -56
-27 -90 -62 -183 -13 -34 -24 -71 -24 -81 0 -10 -9 -30 -21 -45 l-20 -26
-1519 0 c-1202 0 -1520 3 -1527 13 -10 12 -34 76 -58 157 -14 44 -30 94 -65
195 -9 28 -29 91 -44 140 -16 50 -37 113 -47 140 -11 28 -19 55 -19 60 0 6
-12 47 -26 93 -21 64 -24 86 -15 95 9 9 287 13 1134 17 617 3 1125 4 1129 2 4
-1 262 -7 573 -12z m489 -1019 c15 -17 15 -19 -1 -40 l-18 -21 -1539 2 c-1177
2 -1540 6 -1543 15 -2 6 8 20 23 30 27 17 92 18 1264 23 679 3 1361 6 1516 8
263 2 282 1 298 -17z m-3 -149 c14 -9 59 -53 100 -96 41 -44 97 -102 124 -130
28 -28 120 -125 205 -215 85 -90 183 -193 218 -229 34 -36 62 -72 62 -80 0
-13 -241 -14 -1877 -8 -1903 7 -2645 15 -2659 28 -8 8 45 76 116 149 25 25 95
99 155 164 178 192 286 305 345 362 l54 53 721 1 c708 2 2351 13 2390 17 11 1
32 -6 46 -16z"/>
<path d="M4264 6659 c-3 -6 -19 -9 -35 -5 -22 4 -34 -1 -58 -25 -39 -38 -43
-66 -39 -236 3 -134 4 -143 27 -167 32 -34 45 -33 70 9 14 25 27 35 44 35 36
0 47 20 62 107 21 121 -5 293 -45 293 -10 0 -22 -5 -26 -11z"/>
<path d="M3268 6653 c-73 -12 -111 -145 -90 -316 7 -53 15 -102 18 -111 11
-28 55 -19 90 19 20 22 41 35 57 35 14 0 28 7 32 18 12 27 17 241 8 302 l-8
55 -40 1 c-22 1 -52 -1 -67 -3z"/>
<path d="M3296 4333 c-4 -4 -21 -7 -38 -8 -27 0 -33 -5 -40 -34 -5 -18 -17
-45 -26 -59 -14 -22 -17 -49 -15 -152 1 -69 5 -147 10 -175 8 -49 9 -50 43
-50 32 0 35 3 45 40 9 33 19 44 56 62 51 25 58 45 58 178 0 108 -12 175 -35
192 -20 14 -47 17 -58 6z"/>
<path d="M4222 4331 c-53 -9 -63 -19 -79 -79 -15 -57 -17 -303 -3 -354 19 -67
69 -72 85 -10 11 44 34 72 60 72 51 0 73 180 38 310 -20 72 -23 74 -101 61z"/>
<path d="M4267 2113 c-13 -13 -19 -14 -29 -5 -19 19 -44 14 -62 -13 -31 -47
-46 -170 -46 -370 0 -164 3 -196 19 -231 35 -77 61 -67 80 30 13 68 24 86 51
79 23 -6 34 14 50 97 28 143 2 430 -38 430 -4 0 -15 -8 -25 -17z"/>
<path d="M3231 2106 c-5 -6 -12 -32 -15 -58 -4 -26 -13 -60 -20 -75 -22 -44
-28 -169 -16 -319 12 -146 18 -167 51 -185 30 -16 40 -1 48 70 8 67 30 94 68
84 33 -8 38 25 38 252 -1 245 -1 246 -86 244 -32 -1 -63 -7 -68 -13z"/>
</g>
</svg>
