<?xml version="1.0" standalone="no"?>
<!DOCTYPE svg PUBLIC "-//W3C//DTD SVG 20010904//EN"
 "http://www.w3.org/TR/2001/REC-SVG-20010904/DTD/svg10.dtd">
<svg version="1.0" xmlns="http://www.w3.org/2000/svg"
 width="849.000000pt" height="1080.000000pt" viewBox="0 0 849.000000 1080.000000"
 preserveAspectRatio="xMidYMid meet">
<metadata>
Created by potrace 1.16, written by Peter Selinger 2001-2019
</metadata>
<g transform="translate(0.000000,1080.000000) scale(0.100000,-0.100000)"
fill="#000000" stroke="none">
<path d="M4110 10755 c-7 -8 -19 -15 -27 -15 -71 0 -586 -358 -998 -694 -411
-335 -770 -703 -1161 -1191 -128 -159 -244 -314 -288 -383 -14 -23 -31 -42
-36 -42 -5 0 -159 165 -341 366 -183 202 -350 379 -372 395 -50 36 -105 52
-181 51 -184 -2 -333 -203 -297 -403 21 -122 -2 -92 524 -672 l288 -318 -93
-167 c-174 -314 -383 -754 -452 -957 -156 -453 -168 -492 -240 -780 -65 -259
-115 -509 -141 -700 -8 -55 -19 -124 -24 -153 -6 -29 -23 -166 -38 -305 -25
-241 -27 -275 -27 -797 0 -528 1 -553 28 -805 15 -143 32 -282 37 -310 6 -27
16 -99 24 -160 22 -172 109 -608 160 -800 19 -71 40 -155 48 -185 38 -148 69
-254 102 -349 19 -58 35 -111 35 -118 0 -8 -40 -58 -89 -113 -49 -54 -98 -119
-110 -143 -34 -70 -46 -157 -31 -230 44 -224 257 -344 441 -249 l60 31 107
-217 108 -217 100 -6 c132 -9 5801 -11 5927 -2 l98 6 55 114 c99 205 203 438
246 552 l20 53 61 -68 c214 -240 266 -278 389 -277 84 0 158 34 218 99 69 75
85 121 85 244 0 155 -14 179 -275 465 -116 127 -210 235 -210 241 0 6 32 110
70 230 66 203 129 427 152 534 5 25 16 74 24 110 20 90 72 405 79 482 4 35 15
144 25 243 57 531 54 1473 -6 2025 -36 337 -108 655 -261 1160 -115 380 -346
943 -517 1259 l-46 84 23 27 c13 15 214 237 448 494 501 551 494 541 494 705
0 96 -3 112 -28 163 -73 149 -250 220 -395 158 -61 -26 -98 -64 -538 -550
-191 -212 -353 -385 -359 -385 -5 0 -24 22 -42 48 -58 87 -325 440 -401 532
-397 474 -827 904 -1287 1286 -71 60 -145 118 -163 131 -18 13 -112 80 -210
150 -253 180 -414 276 -530 316 -78 27 -242 32 -262 7z m232 -162 c238 -162
704 -506 847 -626 386 -324 842 -795 1167 -1207 121 -154 360 -484 385 -533 6
-12 19 -31 29 -42 9 -11 27 -39 40 -62 l23 -41 -149 -164 c-81 -90 -150 -164
-153 -165 -4 -1 -62 81 -130 183 -279 416 -550 759 -826 1044 -398 412 -624
621 -1018 937 l-222 179 -87 -7 -86 -8 -129 -97 c-650 -495 -960 -783 -1382
-1285 -165 -196 -216 -261 -359 -454 -84 -114 -197 -279 -219 -318 -8 -16 -28
3 -148 135 -76 84 -152 167 -168 185 l-30 32 49 68 c26 37 61 88 78 113 75
110 319 422 444 567 277 322 582 612 1017 968 66 54 145 119 175 145 87 74
150 125 377 298 219 168 314 232 345 232 9 0 68 -35 130 -77z m-38 -731 c174
-105 388 -286 704 -596 383 -378 761 -803 902 -1016 14 -21 43 -62 66 -91 126
-166 224 -328 224 -370 l0 -21 -1902 6 c-1768 5 -2034 9 -2054 28 -8 8 28 63
234 354 121 172 258 348 455 584 234 279 983 979 1211 1131 67 45 71 45 160
-9z m-2455 -2706 l434 -478 -31 -67 c-33 -71 -60 -140 -112 -291 -18 -52 -40
-101 -48 -107 -12 -10 -88 -13 -301 -13 -157 0 -324 -5 -370 -10 -81 -9 -87
-12 -129 -52 -59 -58 -64 -70 -111 -249 -66 -257 -91 -371 -141 -649 -10 -58
-26 -136 -35 -174 -9 -37 -15 -91 -13 -120 3 -50 4 -51 43 -64 55 -18 279 -32
536 -32 251 0 258 -2 235 -66 -35 -100 -56 -343 -64 -742 -7 -295 -8 -314 -26
-328 -16 -11 -67 -14 -250 -14 -127 0 -274 -5 -326 -10 -105 -10 -120 -20
-120 -76 0 -26 -8 -39 -36 -60 l-36 -28 5 -145 c5 -151 36 -439 61 -571 8 -41
20 -109 26 -150 6 -41 17 -100 25 -130 7 -30 16 -83 20 -118 11 -103 3 -100
271 -109 l231 -8 -346 -382 -346 -381 -23 61 c-13 34 -32 89 -42 122 -10 33
-32 105 -49 160 -118 381 -244 967 -280 1310 -6 55 -18 168 -27 250 -25 231
-31 909 -10 1130 9 94 21 224 27 290 29 347 134 874 282 1425 29 106 118 374
135 407 7 12 27 63 46 115 61 169 241 553 374 797 l45 84 21 -24 c12 -14 217
-240 455 -503z m4525 422 c-177 -198 -397 -438 -400 -438 -3 0 -30 53 -60 118
-31 64 -73 152 -95 196 -43 86 -48 120 -21 131 9 4 125 11 257 16 131 6 241
12 244 14 2 3 29 5 59 5 l54 0 -38 -42z m-3819 8 c99 -5 145 -18 145 -41 0 -8
-23 -62 -52 -120 -48 -101 -52 -105 -68 -88 -76 83 -208 231 -218 245 -12 15
-8 16 45 12 32 -2 99 -6 148 -8z m2760 -15 l140 -6 75 -112 c64 -95 210 -368
256 -479 l13 -31 -330 -364 -329 -364 -193 -6 c-105 -4 -449 -7 -764 -8 l-571
-1 -436 481 -436 480 26 52 c46 89 183 305 220 343 l34 37 1078 -8 c592 -4
1140 -10 1217 -14z m1894 -148 c261 -529 473 -1109 615 -1678 64 -257 87 -404
110 -685 35 -426 41 -586 41 -1125 0 -847 -23 -1105 -136 -1545 -33 -129 -72
-273 -86 -320 -76 -256 -97 -320 -105 -318 -4 2 -120 127 -257 278 l-250 275
51 12 c55 13 63 20 78 75 6 20 22 51 36 68 14 17 35 53 45 81 20 52 69 347 89
534 7 61 14 113 16 117 7 11 34 340 34 415 l0 72 -32 5 c-18 3 -199 10 -401
15 -203 5 -371 12 -375 16 -4 4 -8 258 -10 566 -3 454 -1 560 10 563 7 3 150
9 318 13 327 9 360 15 375 64 4 12 26 42 48 66 l41 44 -32 162 c-18 89 -39
212 -47 272 -8 61 -20 126 -25 145 -6 19 -26 107 -45 196 -19 88 -43 185 -53
215 -11 30 -22 70 -26 90 -3 20 -18 47 -32 60 l-26 24 -381 3 c-427 4 -390 -3
-428 82 -12 25 -37 80 -56 122 l-36 77 34 39 c101 116 863 952 869 952 3 0 17
-21 29 -47z m-4638 -1063 c57 -63 113 -125 123 -138 l19 -22 -171 0 -172 0 0
29 c0 37 81 265 90 254 4 -4 54 -60 111 -123z m720 -793 c245 -271 444 -495
442 -499 -5 -10 -666 -10 -1676 -1 l-767 6 0 88 c0 97 29 269 90 533 22 94 40
179 40 189 0 28 38 130 55 147 20 20 215 26 875 28 l495 1 446 -492z m1396
486 l300 -6 -304 -336 c-167 -185 -307 -337 -311 -339 -8 -2 -614 661 -620
679 -4 11 500 12 935 2z m1652 -13 c492 -11 630 -21 649 -47 32 -44 118 -370
157 -598 21 -123 33 -254 27 -293 l-4 -32 -1085 0 -1084 0 98 109 c618 684
790 871 803 871 8 0 206 -5 439 -10z m-2475 -1232 c-21 -24 -97 -108 -169
-188 -73 -80 -287 -316 -475 -524 l-344 -379 -405 7 c-223 4 -409 11 -414 15
-28 28 -51 504 -37 776 7 158 13 203 35 302 3 12 13 24 23 26 9 3 424 5 921 6
l903 1 -38 -42z m2581 -60 c3 -57 5 -314 3 -573 l-3 -470 -285 -2 -285 -3
-480 531 c-264 292 -497 550 -518 575 l-39 44 800 0 800 0 7 -102z m-1772
-708 l294 -325 -261 -2 c-143 -2 -411 1 -594 5 l-332 7 292 323 c161 177 296
321 300 320 4 -2 139 -149 301 -328z m-2045 -590 c-1 -5 -180 -206 -397 -445
l-394 -435 -227 0 -227 0 -21 48 c-33 72 -71 251 -88 412 -8 80 -21 180 -29
224 -13 67 -20 182 -12 188 1 1 254 5 562 8 308 3 622 7 698 8 88 1 137 -2
135 -8z m2976 -437 c223 -246 404 -448 403 -449 -1 -2 -738 0 -1637 4 l-1634
7 353 390 c195 215 376 414 404 443 l51 52 827 0 828 0 405 -447z m1581 430
l48 -6 -6 -126 c-3 -69 -12 -169 -21 -221 -8 -52 -25 -156 -37 -230 -46 -280
-41 -263 -74 -271 -17 -4 -67 -9 -112 -13 l-82 -5 -378 417 c-208 230 -387
428 -397 440 l-19 22 515 0 c283 0 537 -3 563 -7z m-5485 -1024 c-11 -20 -18
-20 -230 -17 -120 2 -221 6 -225 10 -23 23 19 28 236 28 229 0 230 0 219 -21z
m4110 4 l105 -7 -65 -7 c-36 -4 -787 -7 -1669 -8 l-1604 -1 19 21 19 21 1545
-6 c850 -3 1592 -10 1650 -13z m-495 -133 c504 -10 817 -24 870 -38 19 -6 31
-16 33 -29 3 -21 -57 -260 -85 -336 -8 -23 -21 -62 -28 -87 -7 -25 -40 -124
-73 -220 -33 -96 -63 -187 -66 -201 -3 -14 -15 -38 -27 -52 l-20 -27 -1642 1
c-903 0 -1660 3 -1682 7 -48 9 -39 -11 -191 454 l-106 328 88 97 88 98 176 5
c327 10 2173 10 2665 0z m1470 -580 c192 -212 409 -451 483 -532 l134 -147
-33 -88 c-17 -48 -42 -109 -55 -135 -13 -26 -31 -69 -40 -95 -23 -68 -146
-310 -183 -360 -50 -69 -62 -64 -209 89 -70 73 -239 250 -377 393 -137 143
-274 285 -303 315 -29 30 -55 64 -58 76 -3 12 44 171 116 390 141 430 160 486
170 482 3 -2 164 -176 355 -388z m-4617 -175 c49 -148 95 -296 102 -327 13
-55 12 -59 -12 -95 -31 -47 -538 -574 -673 -700 -54 -50 -109 -97 -123 -104
-23 -13 -26 -11 -54 21 -31 38 -116 204 -197 389 l-50 114 31 36 c17 20 221
245 451 499 287 316 423 460 427 450 4 -7 48 -134 98 -283z m3744 -360 c24
-10 29 -30 12 -54 l-15 -21 -1377 0 c-1559 0 -2022 6 -2022 26 0 34 41 38 360
42 701 8 2754 20 2885 17 77 -2 148 -6 157 -10z m144 -307 c193 -195 612 -636
632 -666 8 -12 11 -26 8 -30 -19 -18 -4948 7 -4981 26 -13 7 -11 14 13 48 30
41 489 531 629 672 l82 82 798 1 c439 1 1120 5 1513 8 393 4 814 8 935 9 l219
2 152 -152z"/>
<path d="M4795 7161 c-3 -6 -21 -11 -40 -11 -47 0 -90 -39 -104 -94 -12 -51
-14 -187 -2 -289 6 -55 12 -73 35 -95 l27 -27 32 38 c18 21 46 41 62 45 48 13
59 49 62 202 3 109 0 145 -14 185 -17 48 -43 69 -58 46z"/>
<path d="M3652 7126 c-42 -36 -62 -109 -62 -225 0 -101 15 -220 30 -235 14
-14 57 2 95 35 19 17 47 34 62 38 17 5 30 16 34 32 9 31 11 307 3 348 -6 31
-7 31 -69 31 -53 0 -68 -4 -93 -24z"/>
<path d="M4800 2155 c-9 -10 -23 -13 -49 -9 -49 8 -67 -14 -87 -102 -20 -92
-30 -439 -15 -519 12 -63 38 -110 62 -110 8 0 20 19 27 43 6 23 18 61 25 84
10 36 17 44 42 48 50 9 59 52 60 280 0 196 -9 265 -39 289 -10 9 -16 8 -26 -4z"/>
<path d="M3698 2153 c-46 -5 -52 -13 -71 -93 -8 -36 -20 -83 -26 -105 -22 -82
-7 -436 19 -486 14 -25 50 -43 61 -32 5 5 14 36 19 68 12 75 31 103 72 107 29
3 33 7 41 43 4 22 7 135 5 252 -3 229 -5 237 -58 246 -14 2 -42 2 -62 0z"/>
</g>
</svg>
